<svg width="118" height="30" viewBox="0 0 141 160" fill="none" xmlns="http://www.w3.org/2000/svg">
<rect x="2.5" y="2.5" width="136" height="155" rx="17.5" stroke="white" stroke-width="5"/>
<path d="M30 15C30 9.47715 34.4772 5 40 5H106C111.523 5 116 9.47715 116 15V24C116 29.5228 111.523 34 106 34H40C34.4772 34 30 29.5228 30 24V15Z" stroke="#FFFDFD" stroke-width="4"/>
<path d="M52.5 123.5C52.5 133.927 43.6138 142.5 32.5 142.5C21.3862 142.5 12.5 133.927 12.5 123.5C12.5 113.073 21.3862 104.5 32.5 104.5C43.6138 104.5 52.5 113.073 52.5 123.5Z" stroke="white" stroke-width="3"/>
<g filter="url(#filter0_d_0_1)">
<line x1="33" y1="103" x2="33" y2="123" stroke="white" stroke-width="2"/>
</g>
<line x1="32" y1="122" x2="49" y2="122" stroke="white" stroke-width="2"/>
<line x1="27" y1="71" x2="119" y2="71" stroke="white" stroke-width="2"/>
<line x1="27" y1="88" x2="119" y2="88" stroke="white" stroke-width="2"/>
<line x1="27" y1="55" x2="119" y2="55" stroke="white" stroke-width="2"/>
<rect x="71" y="105" width="15" height="15" fill="white"/>
<rect x="94" y="129" width="15" height="15" fill="white"/>
<rect x="70" y="129" width="15" height="15" fill="white"/>
<rect x="94" y="105" width="15" height="15" fill="white"/>
<defs>
<filter id="filter0_d_0_1" x="28" y="103" width="10" height="28" filterUnits="userSpaceOnUse" color-interpolation-filters="sRGB">
<feFlood flood-opacity="0" result="BackgroundImageFix"/>
<feColorMatrix in="SourceAlpha" type="matrix" values="0 0 0 0 0 0 0 0 0 0 0 0 0 0 0 0 0 0 127 0" result="hardAlpha"/>
<feOffset dy="4"/>
<feGaussianBlur stdDeviation="2"/>
<feComposite in2="hardAlpha" operator="out"/>
<feColorMatrix type="matrix" values="0 0 0 0 0 0 0 0 0 0 0 0 0 0 0 0 0 0 0.25 0"/>
<feBlend mode="normal" in2="BackgroundImageFix" result="effect1_dropShadow_0_1"/>
<feBlend mode="normal" in="SourceGraphic" in2="effect1_dropShadow_0_1" result="shape"/>
</filter>
</defs>
</svg>
